<svg width="54" height="14" viewBox="0 0 54 14" fill="none" xmlns="http://www.w3.org/2000/svg">
<path d="M9.876 4.848C9.876 5.528 9.7 6.152 9.348 6.72C8.996 7.288 8.484 7.752 7.812 8.112C7.14 8.472 6.34 8.684 5.412 8.748L4.896 11.64C4.696 12.752 4.152 13.308 3.264 13.308C2.776 13.308 2.324 13.164 1.908 12.876C1.5 12.588 1.172 12.148 0.924 11.556C0.676 10.964 0.552 10.236 0.552 9.372C0.552 7.748 0.812 6.372 1.332 5.244C1.86 4.108 2.564 3.26 3.444 2.7C4.332 2.132 5.308 1.848 6.372 1.848C7.124 1.848 7.76 1.98 8.28 2.244C8.808 2.508 9.204 2.868 9.468 3.324C9.74 3.772 9.876 4.28 9.876 4.848ZM5.628 7.512C7.268 7.304 8.088 6.452 8.088 4.956C8.088 4.428 7.912 4 7.56 3.672C7.216 3.336 6.68 3.168 5.952 3.168C5.128 3.168 4.408 3.428 3.792 3.948C3.184 4.468 2.712 5.192 2.376 6.12C2.048 7.04 1.884 8.092 1.884 9.276C1.884 9.772 1.932 10.212 2.028 10.596C2.132 10.98 2.26 11.28 2.412 11.496C2.572 11.704 2.724 11.808 2.868 11.808C3.068 11.808 3.22 11.532 3.324 10.98L3.72 8.712C3.408 8.664 3.272 8.644 3.312 8.652C3.072 8.612 2.916 8.54 2.844 8.436C2.772 8.324 2.736 8.184 2.736 8.016C2.736 7.84 2.784 7.7 2.88 7.596C2.984 7.492 3.124 7.44 3.3 7.44C3.38 7.44 3.44 7.444 3.48 7.452C3.672 7.484 3.82 7.504 3.924 7.512C4.028 6.888 4.176 6.052 4.368 5.004C4.416 4.732 4.524 4.54 4.692 4.428C4.868 4.308 5.072 4.248 5.304 4.248C5.568 4.248 5.756 4.3 5.868 4.404C5.988 4.5 6.048 4.656 6.048 4.872C6.048 5 6.04 5.104 6.024 5.184L5.628 7.512ZM10.6887 12.06C10.1927 12.06 9.79672 11.88 9.50072 11.52C9.20472 11.16 9.05672 10.688 9.05672 10.104C9.05672 9.464 9.20472 8.86 9.50072 8.292C9.79672 7.716 10.1887 7.256 10.6767 6.912C11.1727 6.56 11.6967 6.384 12.2487 6.384C12.4247 6.384 12.5407 6.42 12.5967 6.492C12.6607 6.556 12.7127 6.676 12.7527 6.852C12.9207 6.82 13.0967 6.804 13.2807 6.804C13.6727 6.804 13.8687 6.944 13.8687 7.224C13.8687 7.392 13.8087 7.792 13.6887 8.424C13.5047 9.344 13.4127 9.984 13.4127 10.344C13.4127 10.464 13.4407 10.56 13.4967 10.632C13.5607 10.704 13.6407 10.74 13.7367 10.74C13.8887 10.74 14.0727 10.644 14.2887 10.452C14.5047 10.252 14.7967 9.932 15.1647 9.492C15.2607 9.38 15.3687 9.324 15.4887 9.324C15.5927 9.324 15.6727 9.372 15.7287 9.468C15.7927 9.564 15.8247 9.696 15.8247 9.864C15.8247 10.184 15.7487 10.432 15.5967 10.608C15.2687 11.016 14.9207 11.36 14.5527 11.64C14.1847 11.92 13.8287 12.06 13.4847 12.06C13.2207 12.06 12.9767 11.972 12.7527 11.796C12.5367 11.612 12.3727 11.364 12.2607 11.052C11.8447 11.724 11.3207 12.06 10.6887 12.06ZM11.1207 10.848C11.2967 10.848 11.4647 10.744 11.6247 10.536C11.7847 10.328 11.9007 10.052 11.9727 9.708L12.4167 7.5C12.0807 7.508 11.7687 7.636 11.4807 7.884C11.2007 8.124 10.9767 8.444 10.8087 8.844C10.6407 9.244 10.5567 9.668 10.5567 10.116C10.5567 10.364 10.6047 10.548 10.7007 10.668C10.8047 10.788 10.9447 10.848 11.1207 10.848ZM15.7014 12.06C15.3974 12.06 15.1814 11.9 15.0534 11.58C14.9334 11.26 14.8734 10.748 14.8734 10.044C14.8734 9.004 15.0214 8.016 15.3174 7.08C15.3894 6.848 15.5054 6.68 15.6654 6.576C15.8334 6.464 16.0654 6.408 16.3614 6.408C16.5214 6.408 16.6334 6.428 16.6974 6.468C16.7614 6.508 16.7934 6.584 16.7934 6.696C16.7934 6.824 16.7334 7.112 16.6134 7.56C16.5334 7.88 16.4694 8.16 16.4214 8.4C16.3734 8.64 16.3334 8.936 16.3014 9.288C16.5654 8.6 16.8614 8.04 17.1894 7.608C17.5174 7.176 17.8374 6.868 18.1494 6.684C18.4694 6.5 18.7614 6.408 19.0254 6.408C19.5454 6.408 19.8054 6.668 19.8054 7.188C19.8054 7.5 19.7174 8.064 19.5414 8.88C19.3894 9.576 19.3134 10.036 19.3134 10.26C19.3134 10.58 19.4294 10.74 19.6614 10.74C19.8214 10.74 20.0094 10.644 20.2254 10.452C20.4494 10.252 20.7454 9.932 21.1134 9.492C21.2094 9.38 21.3174 9.324 21.4374 9.324C21.5414 9.324 21.6214 9.372 21.6774 9.468C21.7414 9.564 21.7734 9.696 21.7734 9.864C21.7734 10.184 21.6974 10.432 21.5454 10.608C21.2014 11.032 20.8294 11.38 20.4294 11.652C20.0374 11.924 19.5894 12.06 19.0854 12.06C18.6774 12.06 18.3694 11.944 18.1614 11.712C17.9534 11.472 17.8494 11.128 17.8494 10.68C17.8494 10.456 17.9054 10.056 18.0174 9.48C18.1214 8.976 18.1734 8.628 18.1734 8.436C18.1734 8.308 18.1294 8.244 18.0414 8.244C17.9374 8.244 17.7894 8.38 17.5974 8.652C17.4134 8.916 17.2214 9.268 17.0214 9.708C16.8294 10.148 16.6734 10.612 16.5534 11.1C16.4654 11.476 16.3614 11.732 16.2414 11.868C16.1294 11.996 15.9494 12.06 15.7014 12.06ZM22.3746 5.616C22.0386 5.616 21.7866 5.54 21.6186 5.388C21.4506 5.228 21.3666 5.008 21.3666 4.728C21.3666 4.448 21.4746 4.216 21.6906 4.032C21.9146 3.84 22.1906 3.744 22.5186 3.744C22.8146 3.744 23.0546 3.816 23.2386 3.96C23.4226 4.104 23.5146 4.308 23.5146 4.572C23.5146 4.892 23.4106 5.148 23.2026 5.34C22.9946 5.524 22.7186 5.616 22.3746 5.616ZM22.2786 12.06C21.7586 12.06 21.3786 11.876 21.1386 11.508C20.9066 11.14 20.7906 10.652 20.7906 10.044C20.7906 9.684 20.8346 9.224 20.9226 8.664C21.0186 8.096 21.1386 7.568 21.2826 7.08C21.3546 6.824 21.4506 6.648 21.5706 6.552C21.6906 6.456 21.8826 6.408 22.1466 6.408C22.5546 6.408 22.7586 6.544 22.7586 6.816C22.7586 7.016 22.6826 7.48 22.5306 8.208C22.3386 9.088 22.2426 9.684 22.2426 9.996C22.2426 10.236 22.2746 10.42 22.3386 10.548C22.4026 10.676 22.5106 10.74 22.6626 10.74C22.8066 10.74 22.9866 10.64 23.2026 10.44C23.4186 10.24 23.7066 9.924 24.0666 9.492C24.1626 9.38 24.2706 9.324 24.3906 9.324C24.4946 9.324 24.5746 9.372 24.6306 9.468C24.6946 9.564 24.7266 9.696 24.7266 9.864C24.7266 10.184 24.6506 10.432 24.4986 10.608C23.7066 11.576 22.9666 12.06 22.2786 12.06ZM24.6077 12.06C24.3037 12.06 24.0877 11.9 23.9597 11.58C23.8397 11.26 23.7797 10.748 23.7797 10.044C23.7797 9.004 23.9277 8.016 24.2237 7.08C24.2957 6.848 24.4117 6.68 24.5717 6.576C24.7397 6.464 24.9717 6.408 25.2677 6.408C25.4277 6.408 25.5397 6.428 25.6037 6.468C25.6677 6.508 25.6997 6.584 25.6997 6.696C25.6997 6.824 25.6397 7.112 25.5197 7.56C25.4397 7.88 25.3757 8.16 25.3277 8.4C25.2797 8.632 25.2397 8.924 25.2077 9.276C25.4237 8.652 25.6797 8.124 25.9757 7.692C26.2797 7.26 26.5877 6.94 26.8997 6.732C27.2197 6.516 27.5197 6.408 27.7997 6.408C28.0797 6.408 28.2757 6.472 28.3877 6.6C28.5077 6.728 28.5677 6.924 28.5677 7.188C28.5677 7.444 28.4917 7.908 28.3397 8.58C28.2757 8.868 28.2317 9.084 28.2077 9.228C28.6077 8.244 29.0517 7.528 29.5397 7.08C30.0277 6.632 30.4837 6.408 30.9077 6.408C31.4277 6.408 31.6877 6.668 31.6877 7.188C31.6877 7.5 31.5997 8.064 31.4237 8.88C31.2717 9.576 31.1957 10.036 31.1957 10.26C31.1957 10.58 31.3117 10.74 31.5437 10.74C31.7037 10.74 31.8917 10.644 32.1077 10.452C32.3317 10.252 32.6277 9.932 32.9957 9.492C33.0917 9.38 33.1997 9.324 33.3197 9.324C33.4237 9.324 33.5037 9.372 33.5597 9.468C33.6237 9.564 33.6557 9.696 33.6557 9.864C33.6557 10.184 33.5797 10.432 33.4277 10.608C33.0837 11.032 32.7117 11.38 32.3117 11.652C31.9197 11.924 31.4717 12.06 30.9677 12.06C30.5597 12.06 30.2517 11.944 30.0437 11.712C29.8357 11.472 29.7317 11.128 29.7317 10.68C29.7317 10.456 29.7877 10.056 29.8997 9.48C30.0037 8.976 30.0557 8.628 30.0557 8.436C30.0557 8.308 30.0117 8.244 29.9237 8.244C29.8197 8.244 29.6717 8.38 29.4797 8.652C29.2877 8.916 29.0957 9.268 28.9037 9.708C28.7117 10.148 28.5557 10.612 28.4357 11.1C28.3477 11.484 28.2437 11.74 28.1237 11.868C28.0117 11.996 27.8277 12.06 27.5717 12.06C27.3077 12.06 27.1077 11.936 26.9717 11.688C26.8437 11.432 26.7797 11.124 26.7797 10.764C26.7797 10.46 26.8197 10.02 26.8997 9.444C26.9637 8.932 26.9957 8.596 26.9957 8.436C26.9957 8.308 26.9517 8.244 26.8637 8.244C26.7437 8.244 26.5917 8.388 26.4077 8.676C26.2237 8.964 26.0437 9.332 25.8677 9.78C25.6997 10.228 25.5637 10.668 25.4597 11.1C25.3717 11.476 25.2677 11.732 25.1477 11.868C25.0357 11.996 24.8557 12.06 24.6077 12.06ZM34.1614 12.06C33.6654 12.06 33.2694 11.88 32.9734 11.52C32.6774 11.16 32.5294 10.688 32.5294 10.104C32.5294 9.464 32.6774 8.86 32.9734 8.292C33.2694 7.716 33.6614 7.256 34.1494 6.912C34.6454 6.56 35.1694 6.384 35.7214 6.384C35.8974 6.384 36.0134 6.42 36.0694 6.492C36.1334 6.556 36.1854 6.676 36.2254 6.852C36.3934 6.82 36.5694 6.804 36.7534 6.804C37.1454 6.804 37.3414 6.944 37.3414 7.224C37.3414 7.392 37.2814 7.792 37.1614 8.424C36.9774 9.344 36.8854 9.984 36.8854 10.344C36.8854 10.464 36.9134 10.56 36.9694 10.632C37.0334 10.704 37.1134 10.74 37.2094 10.74C37.3614 10.74 37.5454 10.644 37.7614 10.452C37.9774 10.252 38.2694 9.932 38.6374 9.492C38.7334 9.38 38.8414 9.324 38.9614 9.324C39.0654 9.324 39.1454 9.372 39.2014 9.468C39.2654 9.564 39.2974 9.696 39.2974 9.864C39.2974 10.184 39.2214 10.432 39.0694 10.608C38.7414 11.016 38.3934 11.36 38.0254 11.64C37.6574 11.92 37.3014 12.06 36.9574 12.06C36.6934 12.06 36.4494 11.972 36.2254 11.796C36.0094 11.612 35.8454 11.364 35.7334 11.052C35.3174 11.724 34.7934 12.06 34.1614 12.06ZM34.5934 10.848C34.7694 10.848 34.9374 10.744 35.0974 10.536C35.2574 10.328 35.3734 10.052 35.4454 9.708L35.8894 7.5C35.5534 7.508 35.2414 7.636 34.9534 7.884C34.6734 8.124 34.4494 8.444 34.2814 8.844C34.1134 9.244 34.0294 9.668 34.0294 10.116C34.0294 10.364 34.0774 10.548 34.1734 10.668C34.2774 10.788 34.4174 10.848 34.5934 10.848ZM42.8701 9.324C42.9741 9.324 43.0541 9.372 43.1101 9.468C43.1741 9.564 43.2061 9.696 43.2061 9.864C43.2061 10.184 43.1301 10.432 42.9781 10.608C42.6341 11.032 42.2581 11.38 41.8501 11.652C41.4501 11.924 40.9941 12.06 40.4821 12.06C39.7781 12.06 39.2541 11.74 38.9101 11.1C38.5741 10.46 38.4061 9.632 38.4061 8.616C38.4061 7.64 38.5301 6.528 38.7781 5.28C39.0341 4.032 39.4061 2.96 39.8941 2.064C40.3901 1.168 40.9781 0.719999 41.6581 0.719999C42.0421 0.719999 42.3421 0.899999 42.5581 1.26C42.7821 1.612 42.8941 2.12 42.8941 2.784C42.8941 3.736 42.6301 4.84 42.1021 6.096C41.5741 7.352 40.8581 8.596 39.9541 9.828C40.0101 10.156 40.1021 10.392 40.2301 10.536C40.3581 10.672 40.5261 10.74 40.7341 10.74C41.0621 10.74 41.3501 10.648 41.5981 10.464C41.8461 10.272 42.1621 9.948 42.5461 9.492C42.6421 9.38 42.7501 9.324 42.8701 9.324ZM41.3941 1.908C41.2101 1.908 41.0021 2.24 40.7701 2.904C40.5381 3.568 40.3341 4.392 40.1581 5.376C39.9821 6.36 39.8861 7.304 39.8701 8.208C40.4381 7.272 40.8901 6.336 41.2261 5.4C41.5621 4.456 41.7301 3.596 41.7301 2.82C41.7301 2.212 41.6181 1.908 41.3941 1.908ZM43.595 12.06C43.099 12.06 42.703 11.88 42.407 11.52C42.111 11.16 41.963 10.688 41.963 10.104C41.963 9.464 42.111 8.86 42.407 8.292C42.703 7.716 43.095 7.256 43.583 6.912C44.079 6.56 44.603 6.384 45.155 6.384C45.331 6.384 45.447 6.42 45.503 6.492C45.567 6.556 45.619 6.676 45.659 6.852C45.827 6.82 46.003 6.804 46.187 6.804C46.579 6.804 46.775 6.944 46.775 7.224C46.775 7.392 46.715 7.792 46.595 8.424C46.411 9.344 46.319 9.984 46.319 10.344C46.319 10.464 46.347 10.56 46.403 10.632C46.467 10.704 46.547 10.74 46.643 10.74C46.795 10.74 46.979 10.644 47.195 10.452C47.411 10.252 47.703 9.932 48.071 9.492C48.167 9.38 48.275 9.324 48.395 9.324C48.499 9.324 48.579 9.372 48.635 9.468C48.699 9.564 48.731 9.696 48.731 9.864C48.731 10.184 48.655 10.432 48.503 10.608C48.175 11.016 47.827 11.36 47.459 11.64C47.091 11.92 46.735 12.06 46.391 12.06C46.127 12.06 45.883 11.972 45.659 11.796C45.443 11.612 45.279 11.364 45.167 11.052C44.751 11.724 44.227 12.06 43.595 12.06ZM44.027 10.848C44.203 10.848 44.371 10.744 44.531 10.536C44.691 10.328 44.807 10.052 44.879 9.708L45.323 7.5C44.987 7.508 44.675 7.636 44.387 7.884C44.107 8.124 43.883 8.444 43.715 8.844C43.547 9.244 43.463 9.668 43.463 10.116C43.463 10.364 43.511 10.548 43.607 10.668C43.711 10.788 43.851 10.848 44.027 10.848ZM52.6037 8.052C52.7797 8.052 52.9277 8.116 53.0477 8.244C53.1757 8.364 53.2397 8.516 53.2397 8.7C53.2397 8.804 53.2157 8.916 53.1677 9.036C53.0397 9.332 52.8597 9.58 52.6277 9.78C52.3957 9.98 52.1397 10.08 51.8597 10.08C51.6357 10.08 51.4437 10 51.2837 9.84C51.1317 9.68 51.0557 9.464 51.0557 9.192C51.0557 9.04 51.0637 8.876 51.0797 8.7C51.0957 8.572 51.1037 8.484 51.1037 8.436C51.1037 8.372 51.0877 8.324 51.0557 8.292C51.0317 8.26 50.9997 8.244 50.9597 8.244C50.8477 8.244 50.6957 8.38 50.5037 8.652C50.3117 8.916 50.1197 9.268 49.9277 9.708C49.7357 10.148 49.5797 10.612 49.4597 11.1C49.3717 11.484 49.2717 11.74 49.1597 11.868C49.0477 11.996 48.8637 12.06 48.6077 12.06C48.3037 12.06 48.0877 11.9 47.9597 11.58C47.8397 11.26 47.7797 10.748 47.7797 10.044C47.7797 9.004 47.9277 8.016 48.2237 7.08C48.2957 6.848 48.4117 6.68 48.5717 6.576C48.7397 6.464 48.9717 6.408 49.2677 6.408C49.4277 6.408 49.5397 6.428 49.6037 6.468C49.6677 6.508 49.6997 6.584 49.6997 6.696C49.6997 6.824 49.6397 7.112 49.5197 7.56C49.4397 7.88 49.3757 8.16 49.3277 8.4C49.2797 8.64 49.2397 8.936 49.2077 9.288C49.4717 8.6 49.7677 8.04 50.0957 7.608C50.4237 7.176 50.7437 6.868 51.0557 6.684C51.3677 6.5 51.6517 6.408 51.9077 6.408C52.1397 6.408 52.3157 6.476 52.4357 6.612C52.5637 6.74 52.6277 6.932 52.6277 7.188C52.6277 7.34 52.5837 7.628 52.4957 8.052H52.6037Z" fill="white"/>
</svg>
